<?xml version='1.0' encoding='utf-8'?>
<svg xmlns="http://www.w3.org/2000/svg" version="1.1" width="820" height="400.25"><rect width="820" height="400.25" fill="white" x="0" y="0" /><defs /><g><g><rect fill="#C0C0C0" stroke="none" x="695" y="231" width="81.91259765625" height="91" transform="matrix(1 0 0 1 -38 -70)" fill-opacity="0.2" /></g><g><rect fill="#ffffff" stroke="none" x="688" y="224" width="81.91259765625" height="91" transform="matrix(1 0 0 1 -38 -70)" /></g><g><path fill="none" stroke="#000000" paint-order="fill stroke markers" d=" M 650 154 L 731.91259765625 154 L 731.91259765625 245 L 650 245 L 650 154 Z Z" stroke-miterlimit="10" stroke-dasharray="" /></g><g><path fill="none" stroke="#000000" paint-order="fill stroke markers" d=" M 650 179 L 731.91259765625 179" stroke-miterlimit="10" stroke-dasharray="" /></g><g><g><path fill="none" stroke="none" /><text fill="#000000" stroke="none" font-family="Arial" font-size="13px" font-style="normal" font-weight="bold" text-decoration="undefined" x="729.456298828125" y="237.5" text-anchor="middle" dominant-baseline="central" transform="matrix(1 0 0 1 -38 -70)">Usuario</text></g></g><g><g><path fill="none" stroke="none" /><text fill="#000000" stroke="none" font-family="Arial" font-size="13px" font-style="normal" font-weight="normal" text-decoration="undefined" x="693" y="260.5" text-anchor="start" dominant-baseline="central" transform="matrix(1 0 0 1 -38 -70)">email</text></g></g><g><g><path fill="none" stroke="none" /><text fill="#000000" stroke="none" font-family="Arial" font-size="13px" font-style="normal" font-weight="normal" text-decoration="undefined" x="693" y="275.5" text-anchor="start" dominant-baseline="central" transform="matrix(1 0 0 1 -38 -70)">contraseña</text></g></g><g><g><path fill="none" stroke="none" /><text fill="#000000" stroke="none" font-family="Arial" font-size="13px" font-style="normal" font-weight="normal" text-decoration="undefined" x="693" y="290.5" text-anchor="start" dominant-baseline="central" transform="matrix(1 0 0 1 -38 -70)">nombre</text></g></g><g><path fill="#ffffff" stroke="none" paint-order="stroke fill markers" d=" M 642 10 L 751 10 L 761 20 L 761 73 L 642 73 L 642 10" /></g><g><path fill="none" stroke="#000000" paint-order="fill stroke markers" d=" M 642 10 L 751 10 L 761 20 L 761 73 L 642 73 L 642 10 L 642 10" stroke-miterlimit="10" stroke-dasharray="" /></g><g><path fill="none" stroke="#000000" paint-order="fill stroke markers" d=" M 751 10 L 751 20 L 761 20 L 751 10" stroke-miterlimit="10" stroke-dasharray="" /></g><g><g><path fill="none" stroke="none" /><text fill="#000000" stroke="none" font-family="Arial" font-size="13px" font-style="normal" font-weight="normal" text-decoration="undefined" x="685" y="85" text-anchor="start" dominant-baseline="text-before-edge" transform="matrix(1 0 0 1 -38 -70)">RN-001: La</text><text fill="#000000" stroke="none" font-family="Arial" font-size="13px" font-style="normal" font-weight="normal" text-decoration="undefined" x="685" y="98" text-anchor="start" dominant-baseline="text-before-edge" transform="matrix(1 0 0 1 -38 -70)">contraseña debe</text><text fill="#000000" stroke="none" font-family="Arial" font-size="13px" font-style="normal" font-weight="normal" text-decoration="undefined" x="685" y="111" text-anchor="start" dominant-baseline="text-before-edge" transform="matrix(1 0 0 1 -38 -70)">ser de al menos 8</text><text fill="#000000" stroke="none" font-family="Arial" font-size="13px" font-style="normal" font-weight="normal" text-decoration="undefined" x="685" y="124" text-anchor="start" dominant-baseline="text-before-edge" transform="matrix(1 0 0 1 -38 -70)">caracteres</text></g></g><g><path fill="none" stroke="#000000" paint-order="fill stroke markers" d=" M 714 74 L 714 154" stroke-miterlimit="10" stroke-dasharray="3" /></g><g><rect fill="#C0C0C0" stroke="none" x="599.744140625" y="175" width="73.2353515625" height="61" transform="matrix(1 0 0 1 -38 -70)" fill-opacity="0.2" /></g><g><rect fill="#ffffff" stroke="none" x="592.744140625" y="168" width="73.2353515625" height="61" transform="matrix(1 0 0 1 -38 -70)" /></g><g><path fill="none" stroke="#000000" paint-order="fill stroke markers" d=" M 554.744140625 98 L 627.9794921875 98 L 627.9794921875 159 L 554.744140625 159 L 554.744140625 98 Z Z" stroke-miterlimit="10" stroke-dasharray="" /></g><g><path fill="none" stroke="#000000" paint-order="fill stroke markers" d=" M 554.744140625 136 L 627.9794921875 136" stroke-miterlimit="10" stroke-dasharray="" /></g><g><g><path fill="none" stroke="none" /><text fill="#000000" stroke="none" font-family="Arial" font-size="13px" font-style="normal" font-weight="normal" text-decoration="undefined" x="629.86181640625" y="179.5" text-anchor="middle" dominant-baseline="central" transform="matrix(1 0 0 1 -38 -70)">«Entity»</text></g></g><g><g><path fill="none" stroke="none" /><text fill="#000000" stroke="none" font-family="Arial" font-size="13px" font-style="normal" font-weight="bold" text-decoration="undefined" x="629.86181640625" y="194.5" text-anchor="middle" dominant-baseline="central" transform="matrix(1 0 0 1 -38 -70)">Empleado</text></g></g><g><g><path fill="none" stroke="none" /><text fill="#000000" stroke="none" font-family="Arial" font-size="13px" font-style="normal" font-weight="normal" text-decoration="undefined" x="597.744140625" y="217.5" text-anchor="start" dominant-baseline="central" transform="matrix(1 0 0 1 -38 -70)">salario</text></g></g><g><rect fill="#C0C0C0" stroke="none" x="583" y="367" width="114.4189453125" height="91" transform="matrix(1 0 0 1 -38 -70)" fill-opacity="0.2" /></g><g><rect fill="#ffffff" stroke="none" x="576" y="360" width="114.4189453125" height="91" transform="matrix(1 0 0 1 -38 -70)" /></g><g><path fill="none" stroke="#000000" paint-order="fill stroke markers" d=" M 538 290 L 652.4189453125 290 L 652.4189453125 381 L 538 381 L 538 290 Z Z" stroke-miterlimit="10" stroke-dasharray="" /></g><g><path fill="none" stroke="#000000" paint-order="fill stroke markers" d=" M 538 328 L 652.4189453125 328" stroke-miterlimit="10" stroke-dasharray="" /></g><g><g><path fill="none" stroke="none" /><text fill="#000000" stroke="none" font-family="Arial" font-size="13px" font-style="normal" font-weight="normal" text-decoration="undefined" x="633.70947265625" y="371.5" text-anchor="middle" dominant-baseline="central" transform="matrix(1 0 0 1 -38 -70)">«Entity»</text></g></g><g><g><path fill="none" stroke="none" /><text fill="#000000" stroke="none" font-family="Arial" font-size="13px" font-style="normal" font-weight="bold" text-decoration="undefined" x="633.70947265625" y="386.5" text-anchor="middle" dominant-baseline="central" transform="matrix(1 0 0 1 -38 -70)">Cliente</text></g></g><g><g><path fill="none" stroke="none" /><text fill="#000000" stroke="none" font-family="Arial" font-size="13px" font-style="normal" font-weight="normal" text-decoration="undefined" x="581" y="409.5" text-anchor="start" dominant-baseline="central" transform="matrix(1 0 0 1 -38 -70)">direccionEnvio</text></g></g><g><g><path fill="none" stroke="none" /><text fill="#000000" stroke="none" font-family="Arial" font-size="13px" font-style="normal" font-weight="normal" text-decoration="undefined" x="581" y="424.5" text-anchor="start" dominant-baseline="central" transform="matrix(1 0 0 1 -38 -70)">codigoPostal</text></g></g><g><g><path fill="none" stroke="none" /><text fill="#000000" stroke="none" font-family="Arial" font-size="13px" font-style="normal" font-weight="normal" text-decoration="undefined" x="581" y="439.5" text-anchor="start" dominant-baseline="central" transform="matrix(1 0 0 1 -38 -70)">fechaNacimiento</text></g></g><g><path fill="#ffffff" stroke="none" paint-order="stroke fill markers" d=" M 714 306 L 799 306 L 809 316 L 809 382 L 714 382 L 714 306" /></g><g><path fill="none" stroke="#000000" paint-order="fill stroke markers" d=" M 714 306 L 799 306 L 809 316 L 809 382 L 714 382 L 714 306 L 714 306" stroke-miterlimit="10" stroke-dasharray="" /></g><g><path fill="none" stroke="#000000" paint-order="fill stroke markers" d=" M 799 306 L 799 316 L 809 316 L 799 306" stroke-miterlimit="10" stroke-dasharray="" /></g><g><g><path fill="none" stroke="none" /><text fill="#000000" stroke="none" font-family="Arial" font-size="13px" font-style="normal" font-weight="normal" text-decoration="undefined" x="757" y="381" text-anchor="start" dominant-baseline="text-before-edge" transform="matrix(1 0 0 1 -38 -70)">RN-002: El</text><text fill="#000000" stroke="none" font-family="Arial" font-size="13px" font-style="normal" font-weight="normal" text-decoration="undefined" x="757" y="394" text-anchor="start" dominant-baseline="text-before-edge" transform="matrix(1 0 0 1 -38 -70)">cliente debe</text><text fill="#000000" stroke="none" font-family="Arial" font-size="13px" font-style="normal" font-weight="normal" text-decoration="undefined" x="757" y="407" text-anchor="start" dominant-baseline="text-before-edge" transform="matrix(1 0 0 1 -38 -70)">ser mayor de</text><text fill="#000000" stroke="none" font-family="Arial" font-size="13px" font-style="normal" font-weight="normal" text-decoration="undefined" x="757" y="420" text-anchor="start" dominant-baseline="text-before-edge" transform="matrix(1 0 0 1 -38 -70)">14 años</text></g></g><g><path fill="none" stroke="#000000" paint-order="fill stroke markers" d=" M 652 354 L 714 354" stroke-miterlimit="10" stroke-dasharray="3" /></g><g><path fill="none" stroke="#000000" paint-order="fill stroke markers" d=" M 628 103 L 693 103 L 693 154" stroke-miterlimit="10" stroke-dasharray="" /></g><g><path fill="#FFFFFF" stroke="none" paint-order="stroke fill markers" d=" M 684.580964487968 133.6746502847517 L 693 154 L 701.419035512032 133.6746502847517" /></g><g><path fill="none" stroke="#000000" paint-order="fill stroke markers" d=" M 684.580964487968 133.6746502847517 L 693 154 L 701.419035512032 133.6746502847517 L 684.580964487968 133.6746502847517" stroke-miterlimit="10" stroke-dasharray="" /></g><g><path fill="none" stroke="#000000" paint-order="fill stroke markers" d=" M 652 335 L 693 335 L 693 245" stroke-miterlimit="10" stroke-dasharray="" /></g><g><path fill="#FFFFFF" stroke="none" paint-order="stroke fill markers" d=" M 701.419035512032 265.3253497152483 L 693 245 L 684.580964487968 265.3253497152483" /></g><g><path fill="none" stroke="#000000" paint-order="fill stroke markers" d=" M 701.419035512032 265.3253497152483 L 693 245 L 684.580964487968 265.3253497152483 L 701.419035512032 265.3253497152483" stroke-miterlimit="10" stroke-dasharray="" /></g><g><rect fill="#C0C0C0" stroke="none" x="383" y="215" width="117.30712890625" height="121" transform="matrix(1 0 0 1 -38 -70)" fill-opacity="0.2" /></g><g><rect fill="#ffffff" stroke="none" x="376" y="208" width="117.30712890625" height="121" transform="matrix(1 0 0 1 -38 -70)" /></g><g><path fill="none" stroke="#000000" paint-order="fill stroke markers" d=" M 338 138 L 455.30712890625 138 L 455.30712890625 259 L 338 259 L 338 138 Z Z" stroke-miterlimit="10" stroke-dasharray="" /></g><g><path fill="none" stroke="#000000" paint-order="fill stroke markers" d=" M 338 176 L 455.30712890625 176" stroke-miterlimit="10" stroke-dasharray="" /></g><g><g><path fill="none" stroke="none" /><text fill="#000000" stroke="none" font-family="Arial" font-size="13px" font-style="normal" font-weight="normal" text-decoration="undefined" x="435.153564453125" y="219.5" text-anchor="middle" dominant-baseline="central" transform="matrix(1 0 0 1 -38 -70)">«Entity»</text></g></g><g><g><path fill="none" stroke="none" /><text fill="#000000" stroke="none" font-family="Arial" font-size="13px" font-style="normal" font-weight="bold" text-decoration="undefined" x="435.153564453125" y="234.5" text-anchor="middle" dominant-baseline="central" transform="matrix(1 0 0 1 -38 -70)">Pedido</text></g></g><g><g><path fill="none" stroke="none" /><text fill="#000000" stroke="none" font-family="Arial" font-size="13px" font-style="normal" font-weight="normal" text-decoration="undefined" x="381" y="257.5" text-anchor="start" dominant-baseline="central" transform="matrix(1 0 0 1 -38 -70)">fechaRealizacion</text></g></g><g><g><path fill="none" stroke="none" /><text fill="#000000" stroke="none" font-family="Arial" font-size="13px" font-style="normal" font-weight="normal" text-decoration="undefined" x="381" y="272.5" text-anchor="start" dominant-baseline="central" transform="matrix(1 0 0 1 -38 -70)">fechaEnvio[0..1]</text></g></g><g><g><path fill="none" stroke="none" /><text fill="#000000" stroke="none" font-family="Arial" font-size="13px" font-style="normal" font-weight="normal" text-decoration="undefined" x="381" y="287.5" text-anchor="start" dominant-baseline="central" transform="matrix(1 0 0 1 -38 -70)">direccionEntrega</text></g></g><g><g><path fill="none" stroke="none" /><text fill="#000000" stroke="none" font-family="Arial" font-size="13px" font-style="normal" font-weight="normal" text-decoration="undefined" x="381" y="302.5" text-anchor="start" dominant-baseline="central" transform="matrix(1 0 0 1 -38 -70)">comentarios[0..1]</text></g></g><g><g><path fill="none" stroke="none" /><text fill="#000000" stroke="none" font-family="Arial" font-size="13px" font-style="normal" font-weight="normal" text-decoration="undefined" x="381" y="317.5" text-anchor="start" dominant-baseline="central" transform="matrix(1 0 0 1 -38 -70)">/precio</text></g></g><g><path fill="none" stroke="#000000" paint-order="fill stroke markers" d=" M 455 198 L 506 198 L 506 112 L 555 112" stroke-miterlimit="10" stroke-dasharray="" /></g><g><rect fill="#ffffff" stroke="none" x="501" y="218" width="56.74169921875" height="13" transform="matrix(1 0 0 1 -38 -70)" /></g><g><g><path fill="none" stroke="none" /><text fill="#000000" stroke="none" font-family="Arial" font-size="13px" font-style="normal" font-weight="normal" text-decoration="undefined" x="529.370849609375" y="224.5" text-anchor="middle" dominant-baseline="central" transform="matrix(1 0 0 1 -38 -70)">gestiona</text></g></g><g><rect fill="#ffffff" stroke="none" x="511" y="274" width="6.5" height="13" transform="matrix(1 0 0 1 -38 -70)" /></g><g><g><path fill="none" stroke="none" /><text fill="#000000" stroke="none" font-family="Arial" font-size="13px" font-style="normal" font-weight="normal" text-decoration="undefined" x="514.25" y="280.5" text-anchor="middle" dominant-baseline="central" transform="matrix(1 0 0 1 -38 -70)">*</text></g></g><g><rect fill="#ffffff" stroke="none" x="561" y="188" width="21.68359375" height="13" transform="matrix(1 0 0 1 -38 -70)" /></g><g><g><path fill="none" stroke="none" /><text fill="#000000" stroke="none" font-family="Arial" font-size="13px" font-style="normal" font-weight="normal" text-decoration="undefined" x="571.841796875" y="194.5" text-anchor="middle" dominant-baseline="central" transform="matrix(1 0 0 1 -38 -70)">0..1</text></g></g><g><path fill="none" stroke="#000000" paint-order="fill stroke markers" d=" M 455 238 L 506 238 L 506 338 L 538 338" stroke-miterlimit="10" stroke-dasharray="" /></g><g><rect fill="#ffffff" stroke="none" x="536" y="351" width="45.88720703125" height="13" transform="matrix(1 0 0 1 -38 -70)" /></g><g><g><path fill="none" stroke="none" /><text fill="#000000" stroke="none" font-family="Arial" font-size="13px" font-style="normal" font-weight="normal" text-decoration="undefined" x="558.943603515625" y="357.5" text-anchor="middle" dominant-baseline="central" transform="matrix(1 0 0 1 -38 -70)">realiza</text></g></g><g><rect fill="#ffffff" stroke="none" x="511" y="314" width="7.22998046875" height="13" transform="matrix(1 0 0 1 -38 -70)" /></g><g><g><path fill="none" stroke="none" /><text fill="#000000" stroke="none" font-family="Arial" font-size="13px" font-style="normal" font-weight="normal" text-decoration="undefined" x="514.614990234375" y="320.5" text-anchor="middle" dominant-baseline="central" transform="matrix(1 0 0 1 -38 -70)">*</text></g></g><g><rect fill="#ffffff" stroke="none" x="551" y="414" width="7.22998046875" height="13" transform="matrix(1 0 0 1 -38 -70)" /></g><g><g><path fill="none" stroke="none" /><text fill="#000000" stroke="none" font-family="Arial" font-size="13px" font-style="normal" font-weight="normal" text-decoration="undefined" x="554.614990234375" y="420.5" text-anchor="middle" dominant-baseline="central" transform="matrix(1 0 0 1 -38 -70)">1</text></g></g><g><path fill="#ffffff" stroke="none" paint-order="stroke fill markers" d=" M 306 26 L 468.943359375 26 L 478.943359375 36 L 478.943359375 102 L 306 102 L 306 26" /></g><g><path fill="none" stroke="#000000" paint-order="fill stroke markers" d=" M 306 26 L 468.943359375 26 L 478.943359375 36 L 478.943359375 102 L 306 102 L 306 26 L 306 26" stroke-miterlimit="10" stroke-dasharray="" /></g><g><path fill="none" stroke="#000000" paint-order="fill stroke markers" d=" M 468.943359375 26 L 468.943359375 36 L 478.943359375 36 L 468.943359375 26" stroke-miterlimit="10" stroke-dasharray="" /></g><g><g><path fill="none" stroke="none" /><text fill="#000000" stroke="none" font-family="Arial" font-size="13px" font-style="normal" font-weight="normal" text-decoration="undefined" x="349" y="101" text-anchor="start" dominant-baseline="text-before-edge" transform="matrix(1 0 0 1 -38 -70)">RN-003: Los clientes</text><text fill="#000000" stroke="none" font-family="Arial" font-size="13px" font-style="normal" font-weight="normal" text-decoration="undefined" x="349" y="114" text-anchor="start" dominant-baseline="text-before-edge" transform="matrix(1 0 0 1 -38 -70)">menores de 18 años no</text><text fill="#000000" stroke="none" font-family="Arial" font-size="13px" font-style="normal" font-weight="normal" text-decoration="undefined" x="349" y="127" text-anchor="start" dominant-baseline="text-before-edge" transform="matrix(1 0 0 1 -38 -70)">podrán pedir productos que</text><text fill="#000000" stroke="none" font-family="Arial" font-size="13px" font-style="normal" font-weight="normal" text-decoration="undefined" x="349" y="140" text-anchor="start" dominant-baseline="text-before-edge" transform="matrix(1 0 0 1 -38 -70)">!puedeVenderseAMenores</text></g></g><g><rect fill="#C0C0C0" stroke="none" x="55" y="213.25" width="205.1396484375" height="121" transform="matrix(1 0 0 1 -38 -70)" fill-opacity="0.2" /></g><g><rect fill="#ffffff" stroke="none" x="48" y="206.25" width="205.1396484375" height="121" transform="matrix(1 0 0 1 -38 -70)" /></g><g><path fill="none" stroke="#000000" paint-order="fill stroke markers" d=" M 10 136.25 L 215.1396484375 136.25 L 215.1396484375 257.25 L 10 257.25 L 10 136.25 Z Z" stroke-miterlimit="10" stroke-dasharray="" /></g><g><path fill="none" stroke="#000000" paint-order="fill stroke markers" d=" M 10 174.25 L 215.1396484375 174.25" stroke-miterlimit="10" stroke-dasharray="" /></g><g><g><path fill="none" stroke="none" /><text fill="#000000" stroke="none" font-family="Arial" font-size="13px" font-style="normal" font-weight="normal" text-decoration="undefined" x="151.06982421875" y="217.75" text-anchor="middle" dominant-baseline="central" transform="matrix(1 0 0 1 -38 -70)">«Entity»</text></g></g><g><g><path fill="none" stroke="none" /><text fill="#000000" stroke="none" font-family="Arial" font-size="13px" font-style="normal" font-weight="bold" text-decoration="undefined" x="151.06982421875" y="232.75" text-anchor="middle" dominant-baseline="central" transform="matrix(1 0 0 1 -38 -70)">Producto</text></g></g><g><g><path fill="none" stroke="none" /><text fill="#000000" stroke="none" font-family="Arial" font-size="13px" font-style="normal" font-weight="normal" text-decoration="undefined" x="53" y="255.75" text-anchor="start" dominant-baseline="central" transform="matrix(1 0 0 1 -38 -70)">nombre</text></g></g><g><g><path fill="none" stroke="none" /><text fill="#000000" stroke="none" font-family="Arial" font-size="13px" font-style="normal" font-weight="normal" text-decoration="undefined" x="53" y="270.75" text-anchor="start" dominant-baseline="central" transform="matrix(1 0 0 1 -38 -70)">descripcion[0..1]</text></g></g><g><g><path fill="none" stroke="none" /><text fill="#000000" stroke="none" font-family="Arial" font-size="13px" font-style="normal" font-weight="normal" text-decoration="undefined" x="53" y="285.75" text-anchor="start" dominant-baseline="central" transform="matrix(1 0 0 1 -38 -70)">precioUnitario</text></g></g><g><g><path fill="none" stroke="none" /><text fill="#000000" stroke="none" font-family="Arial" font-size="13px" font-style="normal" font-weight="normal" text-decoration="undefined" x="53" y="300.75" text-anchor="start" dominant-baseline="central" transform="matrix(1 0 0 1 -38 -70)">puedeVenderseAMenores = true</text></g></g><g><g><path fill="none" stroke="none" /><text fill="#000000" stroke="none" font-family="Arial" font-size="13px" font-style="normal" font-weight="normal" text-decoration="undefined" x="53" y="315.75" text-anchor="start" dominant-baseline="central" transform="matrix(1 0 0 1 -38 -70)">tipo: TipoProducto</text></g></g><g><rect fill="#C0C0C0" stroke="none" x="55" y="119" width="126.34619140625" height="76" transform="matrix(1 0 0 1 -38 -70)" fill-opacity="0.2" /></g><g><rect fill="#ffffff" stroke="none" x="48" y="112" width="126.34619140625" height="76" transform="matrix(1 0 0 1 -38 -70)" /></g><g><path fill="none" stroke="#000000" paint-order="fill stroke markers" d=" M 10 42 L 136.34619140625 42 L 136.34619140625 118 L 10 118 L 10 42 Z Z" stroke-miterlimit="10" stroke-dasharray="" /></g><g><path fill="none" stroke="#000000" paint-order="fill stroke markers" d=" M 10 80 L 136.34619140625 80" stroke-miterlimit="10" stroke-dasharray="" /></g><g><g><path fill="none" stroke="none" /><text fill="#000000" stroke="none" font-family="Arial" font-size="13px" font-style="normal" font-weight="normal" text-decoration="undefined" x="111.673095703125" y="123.5" text-anchor="middle" dominant-baseline="central" transform="matrix(1 0 0 1 -38 -70)">«enumeration»</text></g></g><g><g><path fill="none" stroke="none" /><text fill="#000000" stroke="none" font-family="Arial" font-size="13px" font-style="normal" font-weight="bold" text-decoration="undefined" x="111.673095703125" y="138.5" text-anchor="middle" dominant-baseline="central" transform="matrix(1 0 0 1 -38 -70)">TipoProducto</text></g></g><g><g><path fill="none" stroke="none" /><text fill="#000000" stroke="none" font-family="Arial" font-size="13px" font-style="normal" font-weight="normal" text-decoration="undefined" x="53" y="161.5" text-anchor="start" dominant-baseline="central" transform="matrix(1 0 0 1 -38 -70)">Físico</text></g></g><g><g><path fill="none" stroke="none" /><text fill="#000000" stroke="none" font-family="Arial" font-size="13px" font-style="normal" font-weight="normal" text-decoration="undefined" x="53" y="176.5" text-anchor="start" dominant-baseline="central" transform="matrix(1 0 0 1 -38 -70)">Digital</text></g></g><g><path fill="#ffffff" stroke="none" paint-order="stroke fill markers" d=" M 50 306 L 148.943359375 306 L 158.943359375 316 L 158.943359375 369 L 50 369 L 50 306" /></g><g><path fill="none" stroke="#000000" paint-order="fill stroke markers" d=" M 50 306 L 148.943359375 306 L 158.943359375 316 L 158.943359375 369 L 50 369 L 50 306 L 50 306" stroke-miterlimit="10" stroke-dasharray="" /></g><g><path fill="none" stroke="#000000" paint-order="fill stroke markers" d=" M 148.943359375 306 L 148.943359375 316 L 158.943359375 316 L 148.943359375 306" stroke-miterlimit="10" stroke-dasharray="" /></g><g><g><path fill="none" stroke="none" /><text fill="#000000" stroke="none" font-family="Arial" font-size="13px" font-style="normal" font-weight="normal" text-decoration="undefined" x="93" y="381" text-anchor="start" dominant-baseline="text-before-edge" transform="matrix(1 0 0 1 -38 -70)">RN-004: El</text><text fill="#000000" stroke="none" font-family="Arial" font-size="13px" font-style="normal" font-weight="normal" text-decoration="undefined" x="93" y="394" text-anchor="start" dominant-baseline="text-before-edge" transform="matrix(1 0 0 1 -38 -70)">precio unitario no</text><text fill="#000000" stroke="none" font-family="Arial" font-size="13px" font-style="normal" font-weight="normal" text-decoration="undefined" x="93" y="407" text-anchor="start" dominant-baseline="text-before-edge" transform="matrix(1 0 0 1 -38 -70)">puede ser</text><text fill="#000000" stroke="none" font-family="Arial" font-size="13px" font-style="normal" font-weight="normal" text-decoration="undefined" x="93" y="420" text-anchor="start" dominant-baseline="text-before-edge" transform="matrix(1 0 0 1 -38 -70)">negativo</text></g></g><g><path fill="none" stroke="#000000" paint-order="fill stroke markers" d=" M 106 305 L 108 258" stroke-miterlimit="10" stroke-dasharray="3" /></g><g><rect fill="#C0C0C0" stroke="none" x="255" y="375.75" width="125.603515625" height="80" transform="matrix(1 0 0 1 -38 -70)" fill-opacity="0.2" /></g><g><rect fill="#ffffff" stroke="none" x="248" y="368.75" width="125.603515625" height="80" transform="matrix(1 0 0 1 -38 -70)" /></g><g><path fill="none" stroke="#000000" paint-order="fill stroke markers" d=" M 210 298.75 L 335.603515625 298.75 L 335.603515625 378.75 L 210 378.75 L 210 298.75 Z Z" stroke-miterlimit="10" stroke-dasharray="" /></g><g><path fill="none" stroke="#000000" paint-order="fill stroke markers" d=" M 210 336.75 L 335.603515625 336.75" stroke-miterlimit="10" stroke-dasharray="" /></g><g><g><path fill="none" stroke="none" /><text fill="#000000" stroke="none" font-family="Arial" font-size="13px" font-style="normal" font-weight="normal" text-decoration="undefined" x="311.3017578125" y="380.25" text-anchor="middle" dominant-baseline="central" transform="matrix(1 0 0 1 -38 -70)">«Entity»</text></g></g><g><g><path fill="none" stroke="none" /><text fill="#000000" stroke="none" font-family="Arial" font-size="13px" font-style="normal" font-weight="bold" text-decoration="undefined" x="311.3017578125" y="395.25" text-anchor="middle" dominant-baseline="central" transform="matrix(1 0 0 1 -38 -70)">LineaPedido</text></g></g><g><g><path fill="none" stroke="none" /><text fill="#000000" stroke="none" font-family="Arial" font-size="13px" font-style="normal" font-weight="normal" text-decoration="undefined" x="253" y="418.25" text-anchor="start" dominant-baseline="central" transform="matrix(1 0 0 1 -38 -70)">unidades</text></g></g><g><g><path fill="none" stroke="none" /><text fill="#000000" stroke="none" font-family="Arial" font-size="13px" font-style="normal" font-weight="normal" text-decoration="undefined" x="253" y="433.25" text-anchor="start" dominant-baseline="central" transform="matrix(1 0 0 1 -38 -70)">precioUnitario</text></g></g><g><path fill="none" stroke="#000000" paint-order="fill stroke markers" d=" M 216 197 L 337 198" stroke-miterlimit="10" stroke-dasharray="" /></g><g><rect fill="#ffffff" stroke="none" x="286" y="246" width="56.74169921875" height="13" transform="matrix(1 0 0 1 -38 -70)" /></g><g><g><path fill="none" stroke="none" /><text fill="#000000" stroke="none" font-family="Arial" font-size="13px" font-style="normal" font-weight="normal" text-decoration="undefined" x="314.370849609375" y="252.5" text-anchor="middle" dominant-baseline="central" transform="matrix(1 0 0 1 -38 -70)">contiene</text></g></g><g><rect fill="#ffffff" stroke="none" x="272" y="273" width="7.22998046875" height="13" transform="matrix(1 0 0 1 -38 -70)" /></g><g><g><path fill="none" stroke="none" /><text fill="#000000" stroke="none" font-family="Arial" font-size="13px" font-style="normal" font-weight="normal" text-decoration="undefined" x="275.614990234375" y="279.5" text-anchor="middle" dominant-baseline="central" transform="matrix(1 0 0 1 -38 -70)">*</text></g></g><g><rect fill="#ffffff" stroke="none" x="351" y="274" width="5.05908203125" height="13" transform="matrix(1 0 0 1 -38 -70)" /></g><g><g><path fill="none" stroke="none" /><text fill="#000000" stroke="none" font-family="Arial" font-size="13px" font-style="normal" font-weight="normal" text-decoration="undefined" x="353.529541015625" y="280.5" text-anchor="middle" dominant-baseline="central" transform="matrix(1 0 0 1 -38 -70)">*</text></g></g><g><path fill="none" stroke="#000000" paint-order="fill stroke markers" d=" M 273 298 L 276 197" stroke-miterlimit="10" stroke-dasharray="3" /></g><g><path fill="none" stroke="#000000" paint-order="fill stroke markers" d=" M 161 338 L 209 338" stroke-miterlimit="10" stroke-dasharray="3" /></g><g><path fill="#ffffff" stroke="none" paint-order="stroke fill markers" d=" M 378 287.25 L 476.943359375 287.25 L 486.943359375 297.25 L 486.943359375 389.25 L 378 389.25 L 378 287.25" /></g><g><path fill="none" stroke="#000000" paint-order="fill stroke markers" d=" M 378 287.25 L 476.943359375 287.25 L 486.943359375 297.25 L 486.943359375 389.25 L 378 389.25 L 378 287.25 L 378 287.25" stroke-miterlimit="10" stroke-dasharray="" /></g><g><path fill="none" stroke="#000000" paint-order="fill stroke markers" d=" M 476.943359375 287.25 L 476.943359375 297.25 L 486.943359375 297.25 L 476.943359375 287.25" stroke-miterlimit="10" stroke-dasharray="" /></g><g><g><path fill="none" stroke="none" /><text fill="#000000" stroke="none" font-family="Arial" font-size="13px" font-style="normal" font-weight="normal" text-decoration="undefined" x="421" y="362.25" text-anchor="start" dominant-baseline="text-before-edge" transform="matrix(1 0 0 1 -38 -70)">RN-005: La</text><text fill="#000000" stroke="none" font-family="Arial" font-size="13px" font-style="normal" font-weight="normal" text-decoration="undefined" x="421" y="375.25" text-anchor="start" dominant-baseline="text-before-edge" transform="matrix(1 0 0 1 -38 -70)">cantidad tiene</text><text fill="#000000" stroke="none" font-family="Arial" font-size="13px" font-style="normal" font-weight="normal" text-decoration="undefined" x="421" y="388.25" text-anchor="start" dominant-baseline="text-before-edge" transform="matrix(1 0 0 1 -38 -70)">que ser mayor</text><text fill="#000000" stroke="none" font-family="Arial" font-size="13px" font-style="normal" font-weight="normal" text-decoration="undefined" x="421" y="401.25" text-anchor="start" dominant-baseline="text-before-edge" transform="matrix(1 0 0 1 -38 -70)">que 0 y no</text><text fill="#000000" stroke="none" font-family="Arial" font-size="13px" font-style="normal" font-weight="normal" text-decoration="undefined" x="421" y="414.25" text-anchor="start" dominant-baseline="text-before-edge" transform="matrix(1 0 0 1 -38 -70)">puede superar</text><text fill="#000000" stroke="none" font-family="Arial" font-size="13px" font-style="normal" font-weight="normal" text-decoration="undefined" x="421" y="427.25" text-anchor="start" dominant-baseline="text-before-edge" transform="matrix(1 0 0 1 -38 -70)">las 100 unidades</text></g></g><g><path fill="none" stroke="#000000" paint-order="fill stroke markers" d=" M 337 338 L 377 338" stroke-miterlimit="10" stroke-dasharray="3" /></g><g><path fill="none" stroke="#000000" paint-order="fill stroke markers" d=" M 394 137 L 393 104" stroke-miterlimit="10" stroke-dasharray="3" /></g></g></svg>